<?xml version="1.0" encoding="utf-8"?><svg viewBox="0 0 268 50" xmlns="http://www.w3.org/2000/svg" xmlns:xlink="http://www.w3.org/1999/xlink"><style>:root>svg{display:none}:root>svg:target{display:block}</style><svg fill="none" viewBox="0 0 268 50" id="logo" xmlns="http://www.w3.org/2000/svg"><path d="M107.787 22.994c0-7.7-3.412-17.64-17.41-17.64h-19v34.982h19c14.489 0 17.41-10.392 17.41-17.339v-.003zm-23.154 8.597V13.635h2.677c3.211 0 6.534 1.123 6.534 9.192 0 8.068-3.566 8.797-6.534 8.797l-2.677-.033zm38.365-.752c0-4.49 2.978-6.947 6.668-6.947.869.028 1.73.162 2.566.404V13.803a8.886 8.886 0 00-2.022-.247c-4.154 0-6.822 3.244-7.777 6.543h-.211v-5.948h-11.646v26.182h12.422v-9.494zm20.001-.125h-10.71V40.4h10.789l-.077-9.685h-.002zm20.889 9.619l5.444-22.78h.333l5.732 22.78h14.256l8.31-34.88h-11.878l-4.202 22.287h-.178l-5.378-22.288h-12.71l-5.489 22.288h-.198l-4.157-22.288h-12.422l8.055 34.881h14.482zm66.565-8.249h-17.234v-5.442h16.234v-7.99h-16.234v-5.05h16.966V5.353h-30.234v34.983h30.576l-.076-8.25.002-.002zm37.468-1.123c0-5.498-4.355-7.799-7.777-8.305v-.213a8.026 8.026 0 005.015-2.68 8.175 8.175 0 002.017-5.355c0-3.254-1.978-9.103-12.812-9.103h-20.799v35.026h20.134c4.412 0 14.301-.494 14.301-9.337l-.077-.033h-.002zm-21.79-18.518h3.412c3.655 0 4.7 1.909 4.7 3.368 0 .999-.444 3.368-5 3.368h-3.112v-6.736zm0 20.795V26.09h3.067c1.112 0 5.256 0 5.256 3.547 0 1.258-.71 3.601-4.968 3.601h-3.355zM22.877 15.41l10.121-5.701 10.177 5.745c.253-.7.385-1.434.39-2.179 0-4.489-4.723-8.17-10.522-8.17-5.8 0-10.521 3.658-10.521 8.17.005.725.124 1.446.355 2.133v.002zm28.234 6.15l6.39 1.56-1.346 4.276 9.733-5.265-15.7-4.68.923 4.108zm-7.544 28.439l15.266-18.696-8.144-4.96L43.567 50v-.002zM42.535 6.553l2.923 3.109L53.299 0H42.187l4.144 2.58-3.799 3.973h.003zm6.744 8.249l6.956-1.414 1.434 5.095 3.457-11.066-13.911 4.49 2.067 2.895h-.003zM7.055 31.299L22.32 49.995l-7.1-23.658-8.166 4.96v.002zm1.332-8.183l6.39-1.56.91-4.108L0 22.13l9.732 5.265-1.345-4.276v-.003zm1.278-9.73l6.946 1.413 2.077-2.895L4.777 7.417l3.456 11.066 1.435-5.095-.003-.002zm13.7-6.835l-3.833-3.973L23.767 0H12.655L20.5 9.718l2.866-3.165v-.002zm4.157 9.506l1.39 5.265h.076l1.879-5.61h4.355l1.987 5.61h.067l1.112-5.186-5.39-3.187-5.476 3.108zm20.154 5.387L42 18.167l-2.045 6.274h-5.067l-1.889-5.758h-.067l-1.923 5.758h-5.09l-2.054-6.264-5.668 3.254s-2.067 7.397 5.812 13.467c2 1.719 4.248 3.12 6.668 4.154l-.345-1.055h5.21l-.344 1.12a24.757 24.757 0 006.668-4.163c7.799-6.195 5.843-13.513 5.843-13.513h-.032v.003zM36.12 36.19h-6.39l-.69-2.11h7.777l-.7 2.11h.003zm1.323-3.917H28.5l-.69-2.11h10.323l-.69 2.11zm1.278-3.918H27.199l-.69-2.11H39.4l-.678 2.11z" fill="#69B42E"/></svg></svg>